<?xml version="1.0" standalone="no"?><!DOCTYPE svg PUBLIC "-//W3C//DTD SVG 1.1//EN" "http://www.w3.org/Graphics/SVG/1.1/DTD/svg11.dtd"><svg t="1560945533198" class="icon" style="" viewBox="0 0 1024 1024" version="1.1" xmlns="http://www.w3.org/2000/svg" p-id="2883" xmlns:xlink="http://www.w3.org/1999/xlink" width="32" height="32"><defs><style type="text/css"></style></defs><path d="M853.6 729.9h45v47h-45zM833.5 776.9h-40.3v-47h40.3v47z m-60.5 0h-40.3v-47H773v47z m-60.4 0h-40.3v-47h40.3v47z m-60.5 0h-40.3v-47h40.3v47z m-60.4 0h-40.3v-47h40.3v47z m-60.5 0h-40.3v-47h40.3v47z m-60.4 0h-40.3v-47h40.3v47z m-60.5 0H370v-47h40.3v47z m-60.4 0h-40.3v-47h40.3v47z m-60.5 0h-40.3v-47h40.3v47z m-60.4 0h-40.3v-47H229v47z m-60.5 0h-40.3v-47h40.3v47zM63 729.9h45v47H63zM108 710.6H63v-38.7h45v38.7z m0-58.1H63v-38.7h45v38.7z m0-58.1H63v-38.7h45v38.7z m0-58.2H63v-38.7h45v38.7z m0-58.1H63v-38.7h45v38.7z m0-58.1H63v-38.7h45V420z m0-58.1H63v-38.7h45v38.7z m0-58.1H63V265h45v38.8z m0-58.1H63V207h45v38.7zM63 140.5h45v47H63zM833.5 187.5h-40.3v-47h40.3v47z m-60.5 0h-40.3v-47H773v47z m-60.4 0h-40.3v-47h40.3v47z m-60.5 0h-40.3v-47h40.3v47z m-60.4 0h-40.3v-47h40.3v47z m-60.5 0h-40.3v-47h40.3v47z m-60.4 0h-40.3v-47h40.3v47z m-60.5 0H370v-47h40.3v47z m-60.4 0h-40.3v-47h40.3v47z m-60.5 0h-40.3v-47h40.3v47z m-60.4 0h-40.3v-47H229v47z m-60.5 0h-40.3v-47h40.3v47zM853.6 140.5h45v47h-45zM898.6 710.6h-45v-38.7h45v38.7z m0-58.1h-45v-38.7h45v38.7z m0-58.1h-45v-38.7h45v38.7z m0-58.2h-45v-38.7h45v38.7z m0-58.1h-45v-38.7h45v38.7z m0-58.1h-45v-38.7h45V420z m0-58.1h-45v-38.7h45v38.7z m0-58.1h-45V265h45v38.8z m0-58.2h-45v-38.7h45v38.7z" fill="#2D8CF5" p-id="2884"></path><path d="M853.6 626.3h45.1v261.6h-45.1z" fill="#2D8CF5" p-id="2885"></path><path d="M748.9 730h261.6v47.2H748.9z" fill="#2D8CF5" p-id="2886"></path></svg>