<?xml version="1.0" standalone="no"?><!DOCTYPE svg PUBLIC "-//W3C//DTD SVG 1.1//EN" "http://www.w3.org/Graphics/SVG/1.1/DTD/svg11.dtd"><svg t="1560329048995" class="icon" style="" viewBox="0 0 1024 1024" version="1.1" xmlns="http://www.w3.org/2000/svg" p-id="6395" xmlns:xlink="http://www.w3.org/1999/xlink" width="32" height="32"><defs><style type="text/css"></style></defs><path d="M477.184 811.52c-145.92 0-230.912-71.68-353.792-175.104-11.776-10.24-24.064-20.48-36.864-31.232l-0.512-0.512c-2.56-2.56-5.632-4.608-8.192-7.168-2.048-1.536-4.096-3.072-5.632-4.608-16.896-14.336-36.352-31.232-37.376-60.416-1.024-27.648 15.36-44.032 32.256-61.952l13.312-13.312c143.36-148.992 284.16-222.72 430.592-224.768 144.896-2.048 286.72 66.56 433.152 209.92 24.576 24.064 47.104 48.64 47.104 81.92s-22.528 55.296-40.96 73.216c-117.76 114.176-313.344 210.432-428.032 211.456-16.384 2.048-31.232 2.56-45.056 2.56z m-358.4-245.248c12.8 10.752 25.088 20.992 36.864 30.72 130.048 109.056 208.384 175.104 361.984 161.28h2.56c101.376 0 285.184-92.16 393.216-197.12 13.312-12.8 25.6-24.576 25.6-36.352 0-10.752-8.704-23.04-31.744-45.568-136.192-133.12-265.728-197.12-396.288-195.072-132.096 2.048-261.12 70.144-394.752 209.408l-12.8 12.8c-14.336 14.848-18.432 19.456-17.92 24.576 0 5.12 3.584 9.728 19.456 23.04 1.536 1.536 3.584 3.072 5.12 4.608 2.56 2.56 5.632 5.12 8.704 7.68z" fill="" p-id="6396"></path><path d="M512 686.592c-90.624 0-164.352-73.728-164.352-164.352 0-90.624 73.728-164.352 164.352-164.352 90.624 0 164.352 73.728 164.352 164.352 0 90.624-73.728 164.352-164.352 164.352z m0-277.504c-62.464 0-113.152 50.688-113.152 113.152s50.688 113.152 113.152 113.152 113.152-50.688 113.152-113.152-50.688-113.152-113.152-113.152z" fill="" p-id="6397"></path></svg>