<?xml version="1.0" standalone="no"?><!DOCTYPE svg PUBLIC "-//W3C//DTD SVG 1.1//EN" "http://www.w3.org/Graphics/SVG/1.1/DTD/svg11.dtd"><svg t="1560328686980" class="icon" style="" viewBox="0 0 1024 1024" version="1.1" xmlns="http://www.w3.org/2000/svg" p-id="4917" xmlns:xlink="http://www.w3.org/1999/xlink" width="32" height="32"><defs><style type="text/css"></style></defs><path d="M435.2 776.533333c-197.973333 0-358.4-160.426667-358.4-358.4s160.426667-358.4 358.4-358.4 358.4 160.426667 358.4 358.4S633.173333 776.533333 435.2 776.533333zM435.2 93.866667c-179.2 0-324.266667 145.066667-324.266667 324.266667s145.066667 324.266667 324.266667 324.266667 324.266667-145.066667 324.266667-324.266667S614.4 93.866667 435.2 93.866667z" p-id="4918"></path><path d="M554.666667 435.2l-238.933333 0c-10.24 0-17.066667-6.826667-17.066667-17.066667s6.826667-17.066667 17.066667-17.066667l238.933333 0c10.24 0 17.066667 6.826667 17.066667 17.066667S564.906667 435.2 554.666667 435.2z" p-id="4919"></path><path d="M930.133333 964.266667c-5.12 0-8.533333-1.706667-11.946667-5.12L651.946667 682.666667c-6.826667-6.826667-6.826667-17.066667 0-23.893333 6.826667-6.826667 17.066667-6.826667 23.893333 0l264.533333 276.48c6.826667 6.826667 6.826667 17.066667 0 23.893333C938.666667 962.56 933.546667 964.266667 930.133333 964.266667z" p-id="4920"></path><path d="M435.2 554.666667c-10.24 0-17.066667-6.826667-17.066667-17.066667l0-238.933333c0-10.24 6.826667-17.066667 17.066667-17.066667 10.24 0 17.066667 6.826667 17.066667 17.066667l0 238.933333C452.266667 547.84 445.44 554.666667 435.2 554.666667z" p-id="4921"></path></svg>