<?xml version="1.0" standalone="no"?><!DOCTYPE svg PUBLIC "-//W3C//DTD SVG 1.1//EN" "http://www.w3.org/Graphics/SVG/1.1/DTD/svg11.dtd"><svg t="1560328740951" class="icon" style="" viewBox="0 0 1024 1024" version="1.1" xmlns="http://www.w3.org/2000/svg" p-id="629" xmlns:xlink="http://www.w3.org/1999/xlink" width="32" height="32"><defs><style type="text/css"></style></defs><path d="M604.16 430.08c0 11.264-9.216 20.48-20.48 20.48H276.48c-11.264 0-20.48-9.216-20.48-20.48s9.216-20.48 20.48-20.48h307.2c11.264 0 20.48 9.216 20.48 20.48z m359.424 533.504c-4.096 4.096-9.216 6.144-14.336 6.144s-10.24-2.048-14.336-6.144L683.008 711.68C615.424 772.096 527.36 808.96 430.08 808.96 221.184 808.96 51.2 638.976 51.2 430.08S221.184 51.2 430.08 51.2s378.88 169.984 378.88 378.88c0 97.28-36.864 185.344-97.28 252.928l251.904 251.904c8.192 8.192 8.192 20.48 0 28.672zM768 430.08C768 243.712 616.448 92.16 430.08 92.16S92.16 243.712 92.16 430.08s151.552 337.92 337.92 337.92 337.92-151.552 337.92-337.92z" p-id="630"></path></svg>